<svg width="16" height="9" viewBox="0 0 16 9" fill="none" xmlns="http://www.w3.org/2000/svg">
<path d="M15.6364 1.6364C15.9879 1.28492 15.9879 0.715076 15.6364 0.363604C15.2849 0.012132 14.7151 0.012132 14.3636 0.363604L15.6364 1.6364ZM8 8L7.3636 8.6364C7.71508 8.98787 8.28492 8.98787 8.6364 8.6364L8 8ZM1.6364 0.363604C1.28492 0.012132 0.715075 0.012132 0.363604 0.363604C0.0121317 0.715076 0.0121317 1.28492 0.363604 1.6364L1.6364 0.363604ZM14.3636 0.363604L7.3636 7.3636L8.6364 8.6364L15.6364 1.6364L14.3636 0.363604ZM8.6364 7.3636L1.6364 0.363604L0.363604 1.6364L7.3636 8.6364L8.6364 7.3636Z" fill="#1B1C31"/>
</svg>
