<svg width="37" height="36" viewBox="0 0 37 36" fill="none" xmlns="http://www.w3.org/2000/svg">
<circle cx="18.5" cy="18" r="18" fill="#F3F3F3"/>
<path d="M24.633 14.8904L16.9053 22.8202C16.8104 22.919 16.6973 22.9975 16.5726 23.051C16.4479 23.1046 16.3141 23.1321 16.1789 23.1321C16.0437 23.1321 15.9099 23.1046 15.7852 23.051C15.6605 22.9975 15.5474 22.919 15.4525 22.8202L11.8463 19.1196C11.6536 18.9219 11.5454 18.6538 11.5454 18.3742C11.5454 18.0947 11.6536 17.8265 11.8463 17.6288C12.0389 17.4311 12.3002 17.3201 12.5727 17.3201C12.8451 17.3201 13.1064 17.4311 13.2991 17.6288L16.1789 20.5787L23.1802 13.3996C23.3728 13.2019 23.6341 13.0908 23.9066 13.0908C24.179 13.0908 24.4403 13.2019 24.633 13.3996C24.8256 13.5973 24.9338 13.8654 24.9338 14.145C24.9338 14.4246 24.8256 14.6927 24.633 14.8904Z" fill="#ED1C24"/>
</svg>
